<svg width="149" height="28" viewBox="0 0 149 28" fill="none" xmlns="http://www.w3.org/2000/svg">
<path d="M69.6401 13.9536C69.3218 14.1233 68.9938 14.2896 68.6566 14.4521C68.3191 14.6147 67.9597 14.7562 67.578 14.8768C67.1958 14.9969 66.779 15.0922 66.3273 15.1632C65.8753 15.2338 65.382 15.2691 64.8472 15.2691C63.1415 15.2691 61.8274 14.8448 60.9044 13.996C59.9819 13.1471 59.5204 11.7325 59.5204 9.75207C59.5204 8.60625 59.6795 7.52763 59.9977 6.51621C60.316 5.5048 60.7869 4.62065 61.4105 3.86377C62.0341 3.10689 62.8044 2.5092 63.721 2.07069C64.6375 1.63219 65.6874 1.41293 66.8712 1.41293C67.4313 1.41293 67.9438 1.45536 68.4083 1.5402C68.8732 1.62505 69.2931 1.73467 69.6684 1.86908C70.0441 2.00349 70.3816 2.14882 70.6806 2.30422C70.9795 2.46005 71.2501 2.60832 71.492 2.74987L70.8045 6.69641H67.3678C67.3807 6.55528 67.3965 6.37131 67.4154 6.14492C67.4347 5.91852 67.4506 5.68877 67.4634 5.45524C67.4759 5.2217 67.4888 4.99195 67.5016 4.76556C67.5141 4.53916 67.5205 4.34847 67.5205 4.19265C67.5205 4.07966 67.5141 3.94861 67.5016 3.80035C67.4888 3.65166 67.457 3.50675 67.406 3.3652C67.355 3.22365 67.2756 3.10689 67.1675 3.0149C67.059 2.92334 66.9158 2.87713 66.7378 2.87713C66.4067 2.87713 66.1043 3.02918 65.8307 3.33328C65.557 3.63738 65.3121 4.0406 65.0956 4.54295C64.8794 5.04487 64.6881 5.61443 64.523 6.25118C64.3574 6.88752 64.2206 7.53477 64.1121 8.19253C64.004 8.85028 63.9213 9.49754 63.8642 10.1343C63.8067 10.7706 63.778 11.3293 63.778 11.8106C63.778 11.9517 63.7844 12.1286 63.7973 12.3411C63.8101 12.5532 63.8483 12.7582 63.9118 12.9564C63.9753 13.1543 64.074 13.3239 64.2077 13.4655C64.3415 13.607 64.523 13.6776 64.752 13.6776C65.1466 13.6776 65.5283 13.4054 65.8976 12.8607C66.2668 12.3163 66.5915 11.3435 66.8712 9.94318H70.4035L69.6401 13.9536ZM81.6503 15.0994H77.1821L76.9149 11.7253H73.3826L72.0268 15.0994H70.1749L75.8075 1.62504H80.3327L81.6503 15.0994ZM74.0126 10.1767H76.7811L76.3419 4.40476L74.0126 10.1767ZM94.4617 4.8294C94.4617 5.66399 94.252 6.43473 93.8317 7.14205C93.4118 7.84937 92.7179 8.387 91.7507 8.75494L93.9655 15.0994H89.7075L88.0271 9.22158H87.8173L86.6907 15.0994H82.5664L85.1441 1.62504H90.1659C90.7514 1.62504 91.3051 1.66411 91.827 1.74181C92.349 1.81994 92.804 1.97534 93.1922 2.20888C93.5803 2.44199 93.8891 2.76751 94.1182 3.18501C94.3472 3.60209 94.4617 4.15022 94.4617 4.8294ZM88.9629 7.86365C89.294 7.86365 89.5771 7.73974 89.8125 7.49235C90.048 7.24495 90.2389 6.94422 90.3855 6.59056C90.5318 6.2369 90.6368 5.85846 90.7003 5.45524C90.7638 5.05201 90.796 4.70213 90.796 4.40476C90.796 4.03724 90.7385 3.72222 90.624 3.46055C90.5095 3.19887 90.2612 3.06825 89.8794 3.06825H89.02L88.0653 7.86365H88.9629ZM106.51 15.0994H102.386L103.016 11.7043H98.0322L98.5096 9.22158L104.2 1.62504H109.126L107.503 9.92176H109.24L108.897 11.7043H107.159L106.51 15.0994ZM103.359 9.92176L104.505 4.02296L100.266 9.92176H103.359ZM120.124 10.0066L119.15 15.0994H115.007L116.057 9.64623L114.186 1.62504H118.768L120.067 6.95136L122.931 1.62504H124.993L120.124 10.0066ZM130.893 1.41293C131.988 1.41293 132.875 1.56876 133.556 1.88C134.237 2.19124 134.775 2.67216 135.17 3.32278C135.424 3.76128 135.622 4.25649 135.762 4.80798C135.902 5.35989 135.972 5.99623 135.972 6.71783C135.972 7.3403 135.921 7.96277 135.819 8.58525C135.717 9.20772 135.574 9.80541 135.389 10.3783C135.205 10.9512 134.982 11.4884 134.721 11.9908C134.46 12.4931 134.171 12.935 133.852 13.3168C133.254 14.0384 132.564 14.5441 131.78 14.8344C130.998 15.1242 130.034 15.2691 128.888 15.2691C127.781 15.2691 126.889 15.1418 126.215 14.8873C125.54 14.6327 125.006 14.2224 124.611 13.6566C124.331 13.2605 124.111 12.7582 123.952 12.15C123.793 11.5418 123.713 10.7778 123.713 9.85834C123.713 8.28787 123.965 6.88416 124.468 5.64635C124.97 4.40854 125.686 3.42904 126.616 2.70744C127.176 2.26894 127.799 1.94342 128.487 1.73131C129.174 1.5192 129.976 1.41293 130.893 1.41293ZM128.735 13.7839C129.028 13.7839 129.305 13.639 129.566 13.3487C129.827 13.0589 130.069 12.67 130.291 12.1819C130.514 11.6938 130.718 11.1386 130.902 10.5161C131.087 9.89362 131.243 9.25014 131.37 8.58525C131.497 7.92035 131.596 7.25882 131.666 6.60106C131.736 5.9433 131.771 5.34561 131.771 4.80798C131.771 4.07252 131.704 3.56681 131.571 3.29086C131.437 3.0149 131.243 2.87713 130.988 2.87713C130.695 2.87713 130.415 3.01868 130.148 3.30136C129.881 3.58445 129.629 3.96289 129.394 4.43668C129.159 4.91047 128.948 5.45524 128.764 6.07057C128.579 6.6859 128.42 7.31888 128.286 7.96991C128.153 8.62053 128.051 9.264 127.981 9.90076C127.911 10.5371 127.876 11.1243 127.876 11.6619C127.876 12.4684 127.956 13.0236 128.115 13.3277C128.274 13.6318 128.481 13.7839 128.735 13.7839ZM141.223 10.2826C141.159 10.5938 141.108 10.8626 141.07 11.089C141.032 11.3154 141.013 11.5275 141.013 11.7253C141.013 12.2205 141.168 12.6166 141.481 12.914C141.792 13.211 142.254 13.3592 142.865 13.3592C143.31 13.3592 143.676 13.2744 143.963 13.1047C144.249 12.935 144.485 12.7086 144.669 12.4259C144.854 12.1428 145 11.8173 145.108 11.4498C145.216 11.0819 145.309 10.6929 145.385 10.2826L147.008 1.62504H148.746L147.084 10.325C146.957 11.0042 146.773 11.6405 146.531 12.2348C146.289 12.8287 145.942 13.3525 145.49 13.8049C145.038 14.2577 144.456 14.6147 143.743 14.8768C143.03 15.1384 142.145 15.2691 141.089 15.2691C139.625 15.2691 138.543 15.004 137.843 14.4735C137.143 13.9431 136.793 13.1261 136.793 12.0227C136.793 11.5275 136.85 10.8979 136.965 10.1343C137.079 9.37027 137.226 8.54283 137.404 7.65154L138.568 1.62504H142.903L141.223 10.2826Z" fill="#E31E24"/>
<path d="M59.5204 18.9632H64.8752V26.4514H63.5108V20.2287H60.8852V26.4514H59.5204V18.9632ZM66.2665 26.4514V18.9632H68.448C69.2746 18.9632 69.8124 18.9998 70.0634 19.0749C70.4493 19.1883 70.7724 19.4324 71.0328 19.8087C71.2932 20.1851 71.4232 20.6714 71.4232 21.2675C71.4232 21.7278 71.348 22.113 71.1991 22.4267C71.0483 22.7405 70.8586 22.9862 70.628 23.166C70.3975 23.3436 70.1624 23.4621 69.9239 23.5196C69.5992 23.591 69.1302 23.6276 68.5153 23.6276H67.6309V26.4514H66.2665ZM67.6309 20.2287V22.362H68.3728C68.9076 22.362 69.2636 22.3221 69.4439 22.2436C69.6242 22.1655 69.7655 22.0432 69.8676 21.8744C69.9693 21.7068 70.021 21.5136 70.021 21.2901C70.021 21.0167 69.9488 20.7916 69.8064 20.6139C69.662 20.4362 69.4817 20.3245 69.2606 20.2791C69.0988 20.2464 68.7742 20.2287 68.2847 20.2287H67.6309ZM72.1372 22.7527C72.1372 21.9891 72.2408 21.3477 72.446 20.8285C72.5983 20.4467 72.8084 20.1032 73.0734 19.7999C73.3383 19.4966 73.6286 19.2719 73.9438 19.1237C74.3641 18.9267 74.849 18.8275 75.3978 18.8275C76.3922 18.8275 77.1859 19.1707 77.7834 19.8558C78.3795 20.5425 78.6773 21.496 78.6773 22.7178C78.6773 23.9291 78.381 24.8776 77.7899 25.5605C77.1984 26.2456 76.4066 26.5875 75.4167 26.5875C74.4144 26.5875 73.6161 26.2473 73.0246 25.566C72.4335 24.886 72.1372 23.9485 72.1372 22.7527ZM73.5394 22.7023C73.5394 23.5511 73.7167 24.1942 74.0693 24.6335C74.4223 25.0708 74.8709 25.2904 75.4137 25.2904C75.9579 25.2904 76.4031 25.0724 76.7531 24.6386C77.1012 24.203 77.2755 23.5511 77.2755 22.6813C77.2755 21.8219 77.1058 21.1805 76.7656 20.7588C76.4266 20.335 75.9764 20.1242 75.4137 20.1242C74.852 20.1242 74.3989 20.3388 74.0553 20.7655C73.7118 21.1944 73.5394 21.8395 73.5394 22.7023ZM79.7579 18.9632H81.1226V22.1533C81.4254 22.1184 81.6306 22.0327 81.7376 21.8916C81.8442 21.7522 82.0105 21.3636 82.2331 20.7256C82.5139 19.915 82.7977 19.4097 83.0816 19.2127C83.3639 19.0157 83.8171 18.9162 84.4445 18.9162C84.4758 18.9162 84.5416 18.9145 84.6421 18.9111V20.0301L84.4494 20.025C84.1701 20.025 83.966 20.0633 83.8375 20.1397C83.709 20.2166 83.6054 20.3333 83.5253 20.4904C83.4455 20.6471 83.3276 20.9697 83.1727 21.4577C83.0895 21.7173 82.9999 21.9336 82.9028 22.1079C82.8072 22.2822 82.636 22.446 82.3914 22.5994C82.6942 22.6934 82.9436 22.8871 83.1413 23.176C83.3386 23.4654 83.5551 23.8733 83.7906 24.4017L84.7079 26.4514H83.108L82.3003 24.5235C82.2879 24.4958 82.2614 24.4433 82.2221 24.3651C82.2062 24.3387 82.1499 24.2202 82.0528 24.0127C81.8801 23.6435 81.7391 23.4134 81.6291 23.321C81.518 23.2285 81.3502 23.1815 81.1226 23.1781V26.4514H79.7579V18.9632ZM91.5526 26.4514H90.0832L89.5015 24.7465H86.7987L86.239 26.4514H84.796L87.4122 18.9632H88.8537L91.5526 26.4514ZM89.0589 23.4814L88.1227 20.7097L87.213 23.4814H89.0589ZM93.3248 26.4514V20.2287H91.33V18.9632H96.675V20.2287H94.6896V26.4514H93.3248ZM106.243 26.4514H104.773L104.191 24.7465H101.489L100.929 26.4514H99.4859L102.102 18.9632H103.544L106.243 26.4514ZM103.749 23.4814L102.813 20.7097L101.903 23.4814H103.749ZM106.969 18.9632H109.663C110.198 18.9632 110.595 18.9876 110.857 19.0367C111.12 19.0871 111.354 19.19 111.561 19.345C111.768 19.5021 111.941 19.7092 112.079 19.9692C112.217 20.2287 112.286 20.5215 112.286 20.8441C112.286 21.1927 112.201 21.5153 112.032 21.8064C111.862 22.0991 111.632 22.3171 111.341 22.4633C111.751 22.5977 112.065 22.8241 112.286 23.145C112.506 23.4654 112.615 23.8422 112.615 24.2761C112.615 24.6176 112.545 24.949 112.402 25.2715C112.259 25.5937 112.065 25.8516 111.817 26.0452C111.571 26.2372 111.266 26.3556 110.904 26.401C110.678 26.427 110.131 26.4442 109.264 26.4514H106.969V18.9632ZM108.333 20.2077V21.9336H109.224C109.753 21.9336 110.082 21.9248 110.211 21.9072C110.443 21.8778 110.626 21.7887 110.76 21.6404C110.893 21.4926 110.959 21.299 110.959 21.0583C110.959 20.8264 110.901 20.6399 110.786 20.4955C110.672 20.351 110.501 20.2636 110.275 20.2342C110.14 20.2166 109.753 20.2077 109.115 20.2077H108.333ZM108.333 23.1781V25.1859H109.594C110.084 25.1859 110.396 25.1703 110.528 25.1405C110.73 25.0989 110.895 24.9994 111.022 24.841C111.149 24.6806 111.213 24.4697 111.213 24.203C111.213 23.9762 111.164 23.7863 111.066 23.6293C110.968 23.4726 110.826 23.3575 110.64 23.2861C110.456 23.2147 110.052 23.1781 109.433 23.1781H108.333ZM114.921 26.4514V20.2287H112.926V18.9632H118.271V20.2287H116.285V26.4514H114.921ZM118.638 22.7527C118.638 21.9891 118.742 21.3477 118.947 20.8285C119.099 20.4467 119.309 20.1032 119.574 19.7999C119.839 19.4966 120.13 19.2719 120.445 19.1237C120.865 18.9267 121.35 18.8275 121.899 18.8275C122.893 18.8275 123.687 19.1707 124.284 19.8558C124.881 20.5425 125.178 21.496 125.178 22.7178C125.178 23.9291 124.882 24.8776 124.291 25.5605C123.699 26.2456 122.908 26.5875 121.918 26.5875C120.915 26.5875 120.117 26.2473 119.526 25.566C118.935 24.886 118.638 23.9485 118.638 22.7527ZM120.04 22.7023C120.04 23.5511 120.218 24.1942 120.57 24.6335C120.923 25.0708 121.372 25.2904 121.915 25.2904C122.459 25.2904 122.904 25.0724 123.254 24.6386C123.602 24.203 123.777 23.5511 123.777 22.6813C123.777 21.8219 123.607 21.1805 123.267 20.7588C122.928 20.335 122.477 20.1242 121.915 20.1242C121.353 20.1242 120.9 20.3388 120.556 20.7655C120.213 21.1944 120.04 21.8395 120.04 22.7023Z" fill="white"/>
<path fill-rule="evenodd" clip-rule="evenodd" d="M54 0H56.589V28H54V0Z" fill="#E31E24"/>
<path fill-rule="evenodd" clip-rule="evenodd" d="M24.3613 23.3192C19.8901 23.3192 20.3679 15.3737 24.229 15.3737C28.2074 15.3737 28.2682 23.3192 24.3613 23.3192ZM47.0014 19.4937C44.9529 19.4937 45.5626 14.088 46.738 13.1572C47.7097 12.3877 48.4581 13.7221 48.4581 14.9326C48.4581 16.1923 48.3564 19.4937 47.0014 19.4937ZM35.483 17.4339C37.3104 17.4339 42.6455 16.1096 44.3535 16.1096C44.2114 16.7879 44.2212 17.0202 44.2212 17.8753C40.3892 17.8753 39.4209 18.2584 36.1376 18.7502C34.8401 18.9443 33.6242 19.2152 32.4276 19.4823L28.5982 20.2296C28.3948 19.2597 28.5562 18.3844 28.4062 17.3448C28.283 16.4914 28.2637 15.9991 29.1987 15.1582C31.533 13.0602 38.911 11.7711 41.9716 11.6968C42.2513 11.6896 42.3122 11.7052 42.5862 11.6443L43.1622 11.4011C39.9659 11.4011 37.3587 11.6208 34.6685 12.1147C32.5194 12.5091 29.1009 13.0829 27.4065 14.3438C26.9412 13.9649 25.7783 12.1626 23.6738 12.8439C20.3928 13.9061 20.4529 19.2572 19.8682 20.5332C19.1724 22.052 17.8991 22.1436 15.888 22.1423C15.0153 22.1415 14.129 22.1869 13.3153 22.0583C11.9815 21.8466 12.1708 22.2339 11.3507 21.2989C10.5479 20.3833 9.51231 19.0581 8.29039 18.6671C7.29713 18.3495 4.57927 18.0656 3.38456 18.2525C1.75332 18.507 1.87653 18.2315 1.01934 20.0565C0.703369 20.7294 0.803525 20.3892 0.264565 20.2296C0.681068 22.2163 2.11124 21.7248 2.96012 21.9424C3.96586 22.1999 3.82186 23.3755 5.82614 23.4658C6.8005 23.5095 7.65165 23.7792 8.33839 23.3167C8.7976 23.0076 8.68271 22.4838 10.5555 22.7707L18.6682 23.4663C18.8848 23.6427 18.6387 23.4306 18.875 23.6779C19.6551 24.4953 19.9249 24.715 21.1438 24.9821C21.7145 25.1073 24.079 25.1753 24.8787 25.0716C25.3625 25.0086 25.8452 24.7167 26.2193 24.5012C27.8789 23.5465 27.9356 21.8416 29.1772 21.3141C29.9501 20.9856 31.3489 20.6458 32.2488 20.461C35.1753 19.8587 39.8733 19.4937 42.8973 19.4937C43.3807 20.5093 43.9567 20.897 45.2787 20.9667C47.1141 21.0637 47.997 20.9852 48.9468 18.7124C49.1664 18.187 49.1996 17.5767 49.5689 17.197C50.1203 16.6308 51.2383 16.4771 51.2383 14.7852C50.801 15.1107 50.3584 15.5035 49.6498 15.5211C49.6498 10.863 46.8401 10.6274 45.6971 12.6003C44.0621 15.4232 44.725 14.9335 40.1972 16.1986L35.7547 17.2944C35.4591 17.4133 35.6315 17.3289 35.483 17.4339Z" fill="white"/>
<path fill-rule="evenodd" clip-rule="evenodd" d="M14.0341 7.72295C16.2539 7.72295 18.5858 7.64483 20.7908 7.71791L24.0964 7.86996C25.0639 7.86996 26.6298 7.97413 27.5259 7.85526C28.8794 7.67591 29.8038 6.7107 30.6826 5.77237L31.1675 5.28136C31.1868 5.25994 31.214 5.22844 31.2325 5.20659L32.4665 3.8054C33.798 2.2929 33.6729 2.50291 35.3144 1.65026C31.7374 1.41925 26.5894 1.16009 23.243 1.91866C22.5116 2.08456 21.7739 2.47435 21.106 2.78096C20.411 3.09976 19.9691 3.46308 19.2843 3.84614L15.6491 6.2806C15.0111 6.75606 14.1574 7.21011 14.0341 7.72295Z" fill="white"/>
<path fill-rule="evenodd" clip-rule="evenodd" d="M30.5839 8.3114C32.0829 8.17279 45.6775 7.88844 45.6775 6.84006C45.6775 5.85048 43.923 4.3909 43.2699 3.92426C41.5038 2.66167 37.2091 1.92789 35.2634 2.88806C34.6741 3.17872 34.111 3.62226 33.7274 4.00616C32.7696 4.9634 30.8663 6.96523 30.5839 8.3114Z" fill="white"/>
<path fill-rule="evenodd" clip-rule="evenodd" d="M11.7834 7.72296C4.66772 7.72296 2.2526 11.6695 2.00769 11.8249C1.75484 11.9854 1.93323 11.7833 1.60819 11.8131C0.948662 11.874 0.282711 13.4643 0.995152 14.5622L2.43288 16.3486C3.11849 16.8404 9.34791 17.4965 10.3669 16.4481C11.4614 15.322 11.5888 13.5915 12.9528 12.5536C14.0833 11.6934 15.7965 11.1209 17.2615 10.5737L20.787 9.48874C21.2168 9.37239 21.6268 9.31821 21.9783 9.04687C20.736 9.04687 18.4513 9.74915 17.3938 10.1322C15.8861 10.6778 14.4843 11.1201 13.0919 11.6783C11.0037 12.515 11.1821 12.6885 8.46652 12.439L2.91251 12.284C3.10451 11.4864 3.88611 10.8908 4.44737 10.4582C6.96151 8.51932 9.16762 8.46388 11.3866 7.86997C11.4221 7.86073 11.4588 7.85065 11.492 7.84057L11.7834 7.72296Z" fill="white"/>
<path fill-rule="evenodd" clip-rule="evenodd" d="M12.1807 15.8151C14.0496 16.2994 19.8599 14.5483 19.8599 12.5784C19.8599 11.7127 18.3836 11.9186 17.7528 12.0005C16.7894 12.1252 13.4944 12.4877 12.9744 13.3134C12.8368 13.5319 12.6323 14.075 12.4861 14.3891C12.2135 14.9742 12.1807 14.973 12.1807 15.8151Z" fill="white"/>
<path fill-rule="evenodd" clip-rule="evenodd" d="M16.1526 21.5535C16.8695 21.5535 17.1473 21.6089 17.7033 21.3456C17.9565 21.2254 18.0231 20.8067 18.0072 20.5122C17.9932 20.2455 17.8394 19.9561 17.393 19.1451C16.7565 17.9879 15.5339 18.3168 13.7696 18.3168C12.3541 18.3168 12.7166 19.7785 13.3361 20.5639C14.0859 21.5153 14.7035 21.5535 16.1526 21.5535Z" fill="white"/>
<path fill-rule="evenodd" clip-rule="evenodd" d="M0 17.1394C0 18.7851 0.331465 18.9107 0.397229 19.7881C1.07225 19.5878 1.32397 17.9131 1.32397 17.8753C1.32397 17.1235 0 16.2503 0 17.1394Z" fill="white"/>
<path fill-rule="evenodd" clip-rule="evenodd" d="M35.483 17.4339L35.1984 17.5145L35.483 17.4339Z" fill="white"/>
</svg>
