<svg width="55" height="55" viewBox="0 0 55 55" fill="none" xmlns="http://www.w3.org/2000/svg">
<g clip-path="url(#clip0_21_2120)">
<path d="M11.4584 48.125V11.4583C11.4584 10.2428 11.9413 9.07697 12.8008 8.21743C13.6603 7.35789 14.8261 6.875 16.0417 6.875H38.9584C40.174 6.875 41.3397 7.35789 42.1993 8.21743C43.0588 9.07697 43.5417 10.2428 43.5417 11.4583V48.125L36.6667 43.5417L32.0834 48.125L27.5 43.5417L22.9167 48.125L18.3334 43.5417L11.4584 48.125Z" stroke="#E31E24" stroke-width="2.75" stroke-linecap="round" stroke-linejoin="round"/>
<path d="M32.0833 18.3334H26.3541C25.4424 18.3334 24.5681 18.6955 23.9234 19.3402C23.2788 19.9849 22.9166 20.8592 22.9166 21.7709C22.9166 22.6826 23.2788 23.5569 23.9234 24.2016C24.5681 24.8462 25.4424 25.2084 26.3541 25.2084H28.6458C29.5575 25.2084 30.4318 25.5705 31.0765 26.2152C31.7211 26.8599 32.0833 27.7342 32.0833 28.6459C32.0833 29.5576 31.7211 30.4319 31.0765 31.0766C30.4318 31.7212 29.5575 32.0834 28.6458 32.0834H22.9166M27.5 32.0834V35.5209M27.5 14.8959V18.3334" stroke="#E31E24" stroke-width="2.75" stroke-linecap="round" stroke-linejoin="round"/>
</g>
<defs>
<clipPath id="clip0_21_2120">
<rect width="55" height="55" fill="white"/>
</clipPath>
</defs>
</svg>
