<svg width="44" height="44" viewBox="0 0 44 44" fill="none" xmlns="http://www.w3.org/2000/svg">
<g clip-path="url(#clip0_11_1891)">
<path d="M14.6667 9.16669H11C10.0275 9.16669 9.09491 9.553 8.40727 10.2406C7.71964 10.9283 7.33333 11.8609 7.33333 12.8334V34.8334C7.33333 35.8058 7.71964 36.7384 8.40727 37.4261C9.09491 38.1137 10.0275 38.5 11 38.5H21.4445" stroke="white" stroke-width="2.75" stroke-linecap="round" stroke-linejoin="round"/>
<path d="M33 22V12.8334C33 11.8609 32.6137 10.9283 31.9261 10.2406C31.2384 9.553 30.3058 9.16669 29.3333 9.16669H25.6667" stroke="white" stroke-width="2.75" stroke-linecap="round" stroke-linejoin="round"/>
<path d="M22 5.5H18.3333C16.3083 5.5 14.6667 7.14162 14.6667 9.16667C14.6667 11.1917 16.3083 12.8333 18.3333 12.8333H22C24.025 12.8333 25.6667 11.1917 25.6667 9.16667C25.6667 7.14162 24.025 5.5 22 5.5Z" stroke="white" stroke-width="2.75" stroke-linecap="round" stroke-linejoin="round"/>
<path d="M14.6667 20.1667H22" stroke="white" stroke-width="2.75" stroke-linecap="round" stroke-linejoin="round"/>
<path d="M14.6667 27.5H20.1667" stroke="white" stroke-width="2.75" stroke-linecap="round" stroke-linejoin="round"/>
<path d="M30.25 36.6667C32.7813 36.6667 34.8333 34.6146 34.8333 32.0833C34.8333 29.552 32.7813 27.5 30.25 27.5C27.7187 27.5 25.6667 29.552 25.6667 32.0833C25.6667 34.6146 27.7187 36.6667 30.25 36.6667Z" stroke="white" stroke-width="2.75" stroke-linecap="round" stroke-linejoin="round"/>
<path d="M33.9167 35.75L38.5 40.3333" stroke="white" stroke-width="2.75" stroke-linecap="round" stroke-linejoin="round"/>
</g>
<defs>
<clipPath id="clip0_11_1891">
<rect width="44" height="44" fill="white"/>
</clipPath>
</defs>
</svg>
